<mxfile host="app.diagrams.net" agent="Mozilla/5.0 (Windows NT 10.0; Win64; x64) AppleWebKit/537.36 (KHTML, like Gecko) Chrome/136.0.0.0 Safari/537.36 Edg/136.0.0.0" version="27.0.4">
  <diagram id="3GnnEBZ-74wc7SbwdSoj" name="Page-1">
    <mxGraphModel dx="1303" dy="770" grid="1" gridSize="10" guides="1" tooltips="1" connect="1" arrows="1" fold="1" page="1" pageScale="1" pageWidth="850" pageHeight="1100" math="0" shadow="0">
      <root>
        <mxCell id="0" />
        <mxCell id="1" parent="0" />
        <mxCell id="62KlOnEagQ60FIQEXEhL-12" style="edgeStyle=orthogonalEdgeStyle;rounded=0;orthogonalLoop=1;jettySize=auto;html=1;entryX=1;entryY=0.5;entryDx=0;entryDy=0;fontSize=13;exitX=1;exitY=0.5;exitDx=0;exitDy=0;" parent="1" edge="1">
          <mxGeometry relative="1" as="geometry">
            <Array as="points">
              <mxPoint x="590" y="446" />
              <mxPoint x="590" y="370" />
            </Array>
            <mxPoint x="470" y="369.5" as="targetPoint" />
          </mxGeometry>
        </mxCell>
        <mxCell id="62KlOnEagQ60FIQEXEhL-41" value="R1" style="text;html=1;align=center;verticalAlign=middle;resizable=0;points=[];autosize=1;strokeColor=none;fillColor=none;fontSize=13;" parent="1" vertex="1">
          <mxGeometry x="790" y="286" width="40" height="30" as="geometry" />
        </mxCell>
        <mxCell id="62KlOnEagQ60FIQEXEhL-45" value="R2" style="text;html=1;align=center;verticalAlign=middle;resizable=0;points=[];autosize=1;strokeColor=none;fillColor=none;" parent="1" vertex="1">
          <mxGeometry x="1110" y="374" width="40" height="30" as="geometry" />
        </mxCell>
        <mxCell id="62KlOnEagQ60FIQEXEhL-74" style="edgeStyle=orthogonalEdgeStyle;rounded=0;orthogonalLoop=1;jettySize=auto;html=1;entryX=0.5;entryY=0;entryDx=0;entryDy=0;" parent="1" source="62KlOnEagQ60FIQEXEhL-51" target="62KlOnEagQ60FIQEXEhL-52" edge="1">
          <mxGeometry relative="1" as="geometry" />
        </mxCell>
        <mxCell id="62KlOnEagQ60FIQEXEhL-51" value="1" style="ellipse;whiteSpace=wrap;html=1;aspect=fixed;" parent="1" vertex="1">
          <mxGeometry x="970" y="194" width="46.99" height="50" as="geometry" />
        </mxCell>
        <mxCell id="62KlOnEagQ60FIQEXEhL-75" style="edgeStyle=orthogonalEdgeStyle;rounded=0;orthogonalLoop=1;jettySize=auto;html=1;exitX=0.5;exitY=1;exitDx=0;exitDy=0;" parent="1" source="62KlOnEagQ60FIQEXEhL-52" edge="1">
          <mxGeometry relative="1" as="geometry">
            <mxPoint x="993" y="330" as="targetPoint" />
          </mxGeometry>
        </mxCell>
        <mxCell id="62KlOnEagQ60FIQEXEhL-52" value="2" style="ellipse;whiteSpace=wrap;html=1;aspect=fixed;" parent="1" vertex="1">
          <mxGeometry x="970" y="266" width="46.99" height="50" as="geometry" />
        </mxCell>
        <mxCell id="62KlOnEagQ60FIQEXEhL-76" value="" style="edgeStyle=orthogonalEdgeStyle;rounded=0;orthogonalLoop=1;jettySize=auto;html=1;" parent="1" source="62KlOnEagQ60FIQEXEhL-53" target="62KlOnEagQ60FIQEXEhL-56" edge="1">
          <mxGeometry relative="1" as="geometry" />
        </mxCell>
        <mxCell id="62KlOnEagQ60FIQEXEhL-53" value="3" style="ellipse;whiteSpace=wrap;html=1;aspect=fixed;" parent="1" vertex="1">
          <mxGeometry x="970" y="334" width="46.99" height="50" as="geometry" />
        </mxCell>
        <mxCell id="62KlOnEagQ60FIQEXEhL-79" style="edgeStyle=orthogonalEdgeStyle;rounded=0;orthogonalLoop=1;jettySize=auto;html=1;exitX=0.5;exitY=1;exitDx=0;exitDy=0;" parent="1" source="62KlOnEagQ60FIQEXEhL-54" edge="1">
          <mxGeometry relative="1" as="geometry">
            <mxPoint x="783.1999999999998" y="480" as="targetPoint" />
          </mxGeometry>
        </mxCell>
        <mxCell id="62KlOnEagQ60FIQEXEhL-54" value="5" style="ellipse;whiteSpace=wrap;html=1;aspect=fixed;" parent="1" vertex="1">
          <mxGeometry x="760" y="404" width="46.99" height="50" as="geometry" />
        </mxCell>
        <mxCell id="62KlOnEagQ60FIQEXEhL-77" style="edgeStyle=orthogonalEdgeStyle;rounded=0;orthogonalLoop=1;jettySize=auto;html=1;entryX=1;entryY=0.5;entryDx=0;entryDy=0;" parent="1" source="62KlOnEagQ60FIQEXEhL-56" target="62KlOnEagQ60FIQEXEhL-54" edge="1">
          <mxGeometry relative="1" as="geometry" />
        </mxCell>
        <mxCell id="62KlOnEagQ60FIQEXEhL-99" style="edgeStyle=orthogonalEdgeStyle;rounded=0;orthogonalLoop=1;jettySize=auto;html=1;" parent="1" source="62KlOnEagQ60FIQEXEhL-56" edge="1">
          <mxGeometry relative="1" as="geometry">
            <mxPoint x="1020" y="360" as="targetPoint" />
            <Array as="points">
              <mxPoint x="1200" y="429" />
              <mxPoint x="1200" y="360" />
            </Array>
          </mxGeometry>
        </mxCell>
        <mxCell id="62KlOnEagQ60FIQEXEhL-56" value="4" style="ellipse;shape=doubleEllipse;whiteSpace=wrap;html=1;aspect=fixed;" parent="1" vertex="1">
          <mxGeometry x="967.5600000000001" y="404" width="51.87" height="50" as="geometry" />
        </mxCell>
        <mxCell id="62KlOnEagQ60FIQEXEhL-80" value="" style="edgeStyle=orthogonalEdgeStyle;rounded=0;orthogonalLoop=1;jettySize=auto;html=1;" parent="1" source="62KlOnEagQ60FIQEXEhL-57" target="62KlOnEagQ60FIQEXEhL-58" edge="1">
          <mxGeometry relative="1" as="geometry" />
        </mxCell>
        <mxCell id="62KlOnEagQ60FIQEXEhL-57" value="6" style="ellipse;whiteSpace=wrap;html=1;aspect=fixed;" parent="1" vertex="1">
          <mxGeometry x="760" y="481" width="46.99" height="50" as="geometry" />
        </mxCell>
        <mxCell id="62KlOnEagQ60FIQEXEhL-85" style="edgeStyle=orthogonalEdgeStyle;rounded=0;orthogonalLoop=1;jettySize=auto;html=1;" parent="1" source="62KlOnEagQ60FIQEXEhL-58" edge="1">
          <mxGeometry relative="1" as="geometry">
            <mxPoint x="580.0000000000005" y="630.0000000000002" as="targetPoint" />
          </mxGeometry>
        </mxCell>
        <mxCell id="62KlOnEagQ60FIQEXEhL-58" value="7" style="ellipse;shape=doubleEllipse;whiteSpace=wrap;html=1;aspect=fixed;" parent="1" vertex="1">
          <mxGeometry x="757.5600000000001" y="556" width="51.87" height="50" as="geometry" />
        </mxCell>
        <mxCell id="62KlOnEagQ60FIQEXEhL-84" style="edgeStyle=orthogonalEdgeStyle;rounded=0;orthogonalLoop=1;jettySize=auto;html=1;" parent="1" source="62KlOnEagQ60FIQEXEhL-59" edge="1">
          <mxGeometry relative="1" as="geometry">
            <mxPoint x="610" y="660" as="targetPoint" />
            <Array as="points">
              <mxPoint x="994" y="660" />
            </Array>
          </mxGeometry>
        </mxCell>
        <mxCell id="62KlOnEagQ60FIQEXEhL-59" value="8" style="ellipse;whiteSpace=wrap;html=1;aspect=fixed;" parent="1" vertex="1">
          <mxGeometry x="970" y="549" width="46.99" height="50" as="geometry" />
        </mxCell>
        <mxCell id="62KlOnEagQ60FIQEXEhL-86" value="" style="edgeStyle=orthogonalEdgeStyle;rounded=0;orthogonalLoop=1;jettySize=auto;html=1;" parent="1" source="62KlOnEagQ60FIQEXEhL-60" target="62KlOnEagQ60FIQEXEhL-61" edge="1">
          <mxGeometry relative="1" as="geometry" />
        </mxCell>
        <mxCell id="62KlOnEagQ60FIQEXEhL-60" value="9" style="ellipse;whiteSpace=wrap;html=1;aspect=fixed;" parent="1" vertex="1">
          <mxGeometry x="559.9999999999999" y="636" width="46.99" height="50" as="geometry" />
        </mxCell>
        <mxCell id="62KlOnEagQ60FIQEXEhL-87" style="edgeStyle=orthogonalEdgeStyle;rounded=0;orthogonalLoop=1;jettySize=auto;html=1;entryX=0;entryY=0.5;entryDx=0;entryDy=0;" parent="1" source="62KlOnEagQ60FIQEXEhL-61" target="62KlOnEagQ60FIQEXEhL-62" edge="1">
          <mxGeometry relative="1" as="geometry" />
        </mxCell>
        <mxCell id="62KlOnEagQ60FIQEXEhL-97" style="edgeStyle=orthogonalEdgeStyle;rounded=0;orthogonalLoop=1;jettySize=auto;html=1;entryX=0.5;entryY=0;entryDx=0;entryDy=0;" parent="1" source="62KlOnEagQ60FIQEXEhL-61" target="62KlOnEagQ60FIQEXEhL-64" edge="1">
          <mxGeometry relative="1" as="geometry" />
        </mxCell>
        <mxCell id="62KlOnEagQ60FIQEXEhL-61" value="10" style="ellipse;shape=doubleEllipse;whiteSpace=wrap;html=1;aspect=fixed;" parent="1" vertex="1">
          <mxGeometry x="557.56" y="713" width="51.87" height="50" as="geometry" />
        </mxCell>
        <mxCell id="62KlOnEagQ60FIQEXEhL-83" value="" style="edgeStyle=orthogonalEdgeStyle;rounded=0;orthogonalLoop=1;jettySize=auto;html=1;" parent="1" source="62KlOnEagQ60FIQEXEhL-62" target="62KlOnEagQ60FIQEXEhL-63" edge="1">
          <mxGeometry relative="1" as="geometry" />
        </mxCell>
        <mxCell id="62KlOnEagQ60FIQEXEhL-62" value="11" style="ellipse;whiteSpace=wrap;html=1;aspect=fixed;" parent="1" vertex="1">
          <mxGeometry x="760" y="713" width="46.99" height="50" as="geometry" />
        </mxCell>
        <mxCell id="62KlOnEagQ60FIQEXEhL-88" style="edgeStyle=orthogonalEdgeStyle;rounded=0;orthogonalLoop=1;jettySize=auto;html=1;entryX=1;entryY=0.5;entryDx=0;entryDy=0;" parent="1" source="62KlOnEagQ60FIQEXEhL-63" target="62KlOnEagQ60FIQEXEhL-64" edge="1">
          <mxGeometry relative="1" as="geometry">
            <Array as="points">
              <mxPoint x="784" y="913" />
            </Array>
          </mxGeometry>
        </mxCell>
        <mxCell id="62KlOnEagQ60FIQEXEhL-63" value="12" style="ellipse;whiteSpace=wrap;html=1;aspect=fixed;" parent="1" vertex="1">
          <mxGeometry x="760" y="793.5" width="46.99" height="50" as="geometry" />
        </mxCell>
        <mxCell id="62KlOnEagQ60FIQEXEhL-89" value="" style="edgeStyle=orthogonalEdgeStyle;rounded=0;orthogonalLoop=1;jettySize=auto;html=1;" parent="1" source="62KlOnEagQ60FIQEXEhL-64" target="62KlOnEagQ60FIQEXEhL-67" edge="1">
          <mxGeometry relative="1" as="geometry" />
        </mxCell>
        <mxCell id="62KlOnEagQ60FIQEXEhL-64" value="13" style="ellipse;whiteSpace=wrap;html=1;aspect=fixed;" parent="1" vertex="1">
          <mxGeometry x="557.4949999999999" y="888" width="50" height="50" as="geometry" />
        </mxCell>
        <mxCell id="62KlOnEagQ60FIQEXEhL-92" value="" style="edgeStyle=orthogonalEdgeStyle;rounded=0;orthogonalLoop=1;jettySize=auto;html=1;" parent="1" source="62KlOnEagQ60FIQEXEhL-65" target="62KlOnEagQ60FIQEXEhL-70" edge="1">
          <mxGeometry relative="1" as="geometry" />
        </mxCell>
        <mxCell id="62KlOnEagQ60FIQEXEhL-65" value="15" style="ellipse;whiteSpace=wrap;html=1;aspect=fixed;" parent="1" vertex="1">
          <mxGeometry x="557.4949999999999" y="1042" width="50" height="50" as="geometry" />
        </mxCell>
        <mxCell id="62KlOnEagQ60FIQEXEhL-95" value="" style="edgeStyle=orthogonalEdgeStyle;rounded=0;orthogonalLoop=1;jettySize=auto;html=1;" parent="1" source="62KlOnEagQ60FIQEXEhL-66" target="62KlOnEagQ60FIQEXEhL-69" edge="1">
          <mxGeometry relative="1" as="geometry" />
        </mxCell>
        <mxCell id="62KlOnEagQ60FIQEXEhL-66" value="17" style="ellipse;whiteSpace=wrap;html=1;aspect=fixed;" parent="1" vertex="1">
          <mxGeometry x="557.4949999999999" y="1197" width="50" height="50" as="geometry" />
        </mxCell>
        <mxCell id="62KlOnEagQ60FIQEXEhL-91" style="edgeStyle=orthogonalEdgeStyle;rounded=0;orthogonalLoop=1;jettySize=auto;html=1;exitX=0.5;exitY=1;exitDx=0;exitDy=0;" parent="1" source="62KlOnEagQ60FIQEXEhL-67" edge="1">
          <mxGeometry relative="1" as="geometry">
            <mxPoint x="582.3333333333335" y="1040" as="targetPoint" />
          </mxGeometry>
        </mxCell>
        <mxCell id="62KlOnEagQ60FIQEXEhL-67" value="14" style="ellipse;whiteSpace=wrap;html=1;aspect=fixed;" parent="1" vertex="1">
          <mxGeometry x="557.4949999999999" y="965" width="50" height="50" as="geometry" />
        </mxCell>
        <mxCell id="62KlOnEagQ60FIQEXEhL-69" value="18" style="ellipse;whiteSpace=wrap;html=1;aspect=fixed;" parent="1" vertex="1">
          <mxGeometry x="557.4949999999999" y="1274" width="50" height="50" as="geometry" />
        </mxCell>
        <mxCell id="62KlOnEagQ60FIQEXEhL-94" style="edgeStyle=orthogonalEdgeStyle;rounded=0;orthogonalLoop=1;jettySize=auto;html=1;exitX=0.5;exitY=1;exitDx=0;exitDy=0;entryX=0.5;entryY=0;entryDx=0;entryDy=0;" parent="1" source="62KlOnEagQ60FIQEXEhL-70" target="62KlOnEagQ60FIQEXEhL-66" edge="1">
          <mxGeometry relative="1" as="geometry" />
        </mxCell>
        <mxCell id="62KlOnEagQ60FIQEXEhL-70" value="16" style="ellipse;whiteSpace=wrap;html=1;aspect=fixed;" parent="1" vertex="1">
          <mxGeometry x="557.4949999999999" y="1119" width="50" height="50" as="geometry" />
        </mxCell>
        <mxCell id="62KlOnEagQ60FIQEXEhL-81" style="edgeStyle=orthogonalEdgeStyle;rounded=0;orthogonalLoop=1;jettySize=auto;html=1;entryX=0.07;entryY=0.642;entryDx=0;entryDy=0;entryPerimeter=0;" parent="1" source="62KlOnEagQ60FIQEXEhL-58" target="62KlOnEagQ60FIQEXEhL-59" edge="1">
          <mxGeometry relative="1" as="geometry" />
        </mxCell>
        <mxCell id="62KlOnEagQ60FIQEXEhL-98" value="R3" style="text;html=1;align=center;verticalAlign=middle;resizable=0;points=[];autosize=1;strokeColor=none;fillColor=none;" parent="1" vertex="1">
          <mxGeometry x="870" y="606" width="40" height="30" as="geometry" />
        </mxCell>
        <mxCell id="62KlOnEagQ60FIQEXEhL-100" value="R4" style="text;html=1;align=center;verticalAlign=middle;resizable=0;points=[];autosize=1;strokeColor=none;fillColor=none;" parent="1" vertex="1">
          <mxGeometry x="670" y="803.5" width="40" height="30" as="geometry" />
        </mxCell>
      </root>
    </mxGraphModel>
  </diagram>
</mxfile>
